<?xml version="1.0" encoding="UTF-8"?>
<svg id="Layer_2" data-name="Layer 2" xmlns="http://www.w3.org/2000/svg" xmlns:xlink="http://www.w3.org/1999/xlink" viewBox="0 0 1080 1080">
  <defs>
    <style>
      .cls-1 {
        fill: url(#linear-gradient);
      }

      .cls-2 {
        fill: #3f86c6;
      }

      .cls-3 {
        fill: #414042;
      }
    </style>
    <linearGradient id="linear-gradient" x1="343.84" y1="498.16" x2="834.96" y2="119.01" gradientUnits="userSpaceOnUse">
      <stop offset="0" stop-color="#3f86c6"/>
      <stop offset="1" stop-color="#0ec2ed"/>
    </linearGradient>
  </defs>
  <g>
    <path class="cls-2" d="M222.67,989.29v-129.97c0-2.11,1.71-3.82,3.82-3.82h20.76c2.11,0,3.82,1.71,3.82,3.82v129.97c0,2.11-1.71,3.82-3.82,3.82h-20.76c-2.11,0-3.82-1.71-3.82-3.82Z"/>
    <path class="cls-2" d="M332.28,994.72c-5.07,0-10.63-.13-16.7-.4-6.07-.27-11.97-.63-17.7-1.1-4.4-.36-8.52-.73-12.37-1.13-1.95-.2-3.43-1.84-3.43-3.8v-15.02c0-2.23,1.89-3.99,4.11-3.81,3.61,.29,7.27,.58,10.99,.87,5.13,.4,10.03,.7,14.7,.9,4.67,.2,8.67,.3,12,.3,6.8,0,12.07-.3,15.8-.9,3.73-.6,6.53-1.5,8.4-2.7,1.47-1.07,2.47-2.23,3-3.5,.53-1.27,.87-2.8,1-4.6,.13-1.8,.2-3.83,.2-6.1,0-3.07-.17-5.6-.5-7.6-.33-2-.9-3.57-1.7-4.7-.8-1.13-2.1-1.97-3.9-2.5-1.8-.53-4.1-.93-6.9-1.2l-30.8-3.8c-6.14-.8-11.17-2.2-15.1-4.2-3.93-2-7.03-4.67-9.3-8-2.27-3.33-3.83-7.27-4.7-11.8-.87-4.53-1.3-9.67-1.3-15.4,0-9.07,1.27-16.27,3.8-21.6,2.53-5.33,6.1-9.4,10.7-12.2,4.6-2.8,10.03-4.63,16.3-5.5,6.27-.87,13.07-1.3,20.4-1.3,5.33,0,10.8,.17,16.4,.5,5.6,.33,10.87,.77,15.8,1.3,3.51,.38,6.62,.83,9.33,1.34,1.8,.34,3.07,1.92,3.07,3.75,0,3.78,0,10.21,0,14.51,0,2.29-2.01,4.08-4.28,3.79s-4.69-.55-7.32-.79c-4.4-.4-9-.7-13.8-.9-4.8-.2-9.34-.3-13.6-.3-6.27,0-11.24,.23-14.9,.7-3.67,.47-6.5,1.23-8.5,2.3-2.27,1.33-3.63,3.07-4.1,5.2-.47,2.13-.7,4.8-.7,8,0,4,.27,7.04,.8,9.1,.53,2.07,1.8,3.5,3.8,4.3,2,.8,5.13,1.47,9.4,2l30.8,3.6c3.73,.4,7.2,1.07,10.4,2,3.2,.93,6.07,2.4,8.6,4.4,2.53,2,4.6,4.8,6.2,8.4,.93,1.87,1.67,4.04,2.2,6.5,.53,2.47,.97,5.23,1.3,8.3,.33,3.07,.5,6.47,.5,10.2,0,7.74-.77,14.2-2.3,19.4-1.53,5.2-3.7,9.34-6.5,12.4-2.8,3.07-6.24,5.4-10.3,7-4.07,1.6-8.57,2.63-13.5,3.1-4.94,.47-10.2,.7-15.8,.7Z"/>
    <path class="cls-3" d="M435.49,989.29v-105.96c0-2.11-1.71-3.82-3.82-3.82h-32.16c-2.11,0-3.82-1.71-3.82-3.82v-16.36c0-2.11,1.71-3.82,3.82-3.82h100.36c2.11,0,3.82,1.71,3.82,3.82v16.36c0,2.11-1.71,3.82-3.82,3.82h-32.16c-2.11,0-3.82,1.71-3.82,3.82v105.96c0,2.11-1.71,3.82-3.82,3.82h-20.76c-2.11,0-3.82-1.71-3.82-3.82Z"/>
    <path class="cls-3" d="M546.45,908.73c-.08,2.7,6.39-9.02,9.39-11.82,3-2.8,6.63-4.73,10.9-5.8,3.35-.84,7.07-1.35,11.17-1.53,1.86-.08,3.44,1.4,3.44,3.26v18.67c0,1.74-1.38,3.19-3.12,3.25-7.19,.26-12.91,1.44-17.18,3.55-4.87,2.4-8.27,6.34-10.2,11.8-1.93,5.47-2.9,12.87-2.9,22.2v37.55c0,1.8-1.46,3.26-3.26,3.26h-19.89c-1.8,0-3.26-1.46-3.26-3.26v-95.49c0-1.8,1.46-3.26,3.26-3.26h18.43c1.74,0,3.18,1.37,3.25,3.11"/>
    <path class="cls-3" d="M624.11,994.72c-6.53,0-12.07-.97-16.6-2.9-4.53-1.93-7.97-5.13-10.3-9.6-2.33-4.47-3.5-10.37-3.5-17.7,0-7.87,.93-14.1,2.8-18.7,1.87-4.6,5.13-7.93,9.8-10,4.67-2.07,11.13-3.1,19.4-3.1,1.33,0,3.2,.03,5.6,.1,2.4,.07,5.13,.13,8.2,.2,3.07,.07,6.13,.13,9.2,.2,1.86,.04,3.63,.09,5.3,.16s3.11-1.29,3.11-3v-.86c0-4.4-.33-7.87-1-10.4-.67-2.53-1.93-4.4-3.8-5.6-1.87-1.2-4.6-1.93-8.2-2.2-3.6-.27-8.27-.4-14-.4-2.93,0-6.34,.07-10.2,.2-3.87,.13-7.6,.33-11.2,.6-1.67,.12-3.19,.25-4.54,.37-2.19,.2-4.06-1.53-4.06-3.72v-12.64c0-1.85,1.34-3.43,3.17-3.7,4.83-.7,9.98-1.27,15.44-1.71,6.67-.53,13.4-.8,20.2-.8,8,0,14.7,.5,20.1,1.5,5.4,1,9.73,2.57,13,4.7,3.27,2.13,5.73,4.83,7.4,8.1,1.67,3.27,2.77,7.14,3.3,11.6,.53,4.47,.8,9.57,.8,15.3v58.67c0,2.06-1.67,3.74-3.74,3.74h-17.36c-1.97,0-3.6-1.53-3.73-3.5l-.57-8.9h-1.6c-2.27,4.13-5.23,7.2-8.9,9.2-3.67,2-7.54,3.3-11.6,3.9-4.07,.6-8.03,.9-11.9,.9Zm12.6-20.4c2.93,0,5.5-.2,7.7-.6s4.13-1.1,5.8-2.1c1.67-1,2.97-2.3,3.9-3.9,.93-1.73,1.67-3.87,2.2-6.4,.53-2.53,.8-5.6,.8-9.2h0c0-1.66-1.34-3-3-3h-21.2c-3.73,0-6.6,.27-8.6,.8-2,.53-3.33,1.74-4,3.6-.67,1.87-1,4.67-1,8.4,0,3.47,.4,6.1,1.2,7.9,.8,1.8,2.47,3,5,3.6,2.53,.6,6.27,.9,11.2,.9Z"/>
    <path class="cls-3" d="M712.11,989.29v-94.35c0-2.11,1.71-3.83,3.83-3.83h18.95c2.11,0,3.83,1.71,3.83,3.83v94.35c0,2.11-1.71,3.83-3.83,3.83h-18.95c-2.11,0-3.83-1.71-3.83-3.83Z"/>
    <path class="cls-3" d="M767.12,989.18v-94.13c0-2.18,1.76-3.94,3.94-3.94h17.16c2.08,0,3.8,1.62,3.93,3.69l.57,9.11h1.6c1.87-3.33,4.17-6.07,6.9-8.2,2.73-2.13,6.13-3.7,10.2-4.7,4.07-1,8.7-1.5,13.9-1.5,6.93,0,12.5,.87,16.7,2.6,4.2,1.73,7.43,4.27,9.7,7.6,2.27,3.34,3.77,7.47,4.5,12.4,.73,4.94,1.1,10.67,1.1,17.2v59.87c0,2.18-1.76,3.94-3.94,3.94h-18.52c-2.18,0-3.94-1.76-3.94-3.94v-50.07c0-6.13-.2-11-.6-14.6-.4-3.6-1.2-6.27-2.4-8-1.2-1.73-3-2.83-5.4-3.3-2.4-.47-5.6-.7-9.6-.7-4.27,0-7.7,.5-10.3,1.5-2.6,1-4.53,2.6-5.8,4.8-1.27,2.2-2.13,5.07-2.6,8.6-.47,3.53-.7,7.84-.7,12.9v48.87c0,2.18-1.76,3.94-3.94,3.94h-18.52c-2.18,0-3.94-1.76-3.94-3.94Z"/>
    <rect class="cls-2" x="711.71" y="848.01" width="27.4" height="27.4" rx="13.7" ry="13.7"/>
  </g>
  <path class="cls-1" d="M499.27,279.39c-1.83-.76-3.9-.66-5.65,.27l-152.69,81.47c-4.92,2.62-4.57,9.79,.59,11.91l190.25,78.65c2.62,1.08,5.64,.37,7.5-1.77l92.05-106.02c2.95-3.39,1.71-8.68-2.44-10.41l-129.6-54.1Zm165.2,25l67.15-77.92c3.06-3.55,1.75-9.04-2.57-10.84l-62.29-25.86c-1.9-.79-4.06-.68-5.88,.29l-111.63,59.68c-5.12,2.74-4.75,10.2,.62,12.42l106.76,44.11c2.74,1.13,5.9,.38,7.83-1.87Zm92.57-107.2l93.18-108.12-146.87,78.42c-5.32,2.84-4.95,10.59,.62,12.91l44.9,18.73c2.85,1.19,6.15,.41,8.17-1.93ZM229.77,85.28v229.67L809.98,85.45l-580.2-.17Zm252.19,417.86l-225.71-94.22c-1.81-.76-3.87-.67-5.61,.25l-20.35,10.72c4.48,106.81,52.75,194.19,109.89,260.99l144.23-167.36c2.93-3.39,1.68-8.66-2.45-10.38Zm57.3,332.18s310.64-151.82,310.64-435.26V134.22L457.53,784.36c46.59,33.69,81.73,50.95,81.73,50.95Z"/>
</svg>